<svg xmlns="http://www.w3.org/2000/svg" viewBox="0 0 500 500"><g id="freepik--Plants--inject-92"><path d="M450,373s2.65-2,2.8-2.15c1.75-1.72,4.12-6.07,2.89-8.53a3.25,3.25,0,0,0-4.7-1.14c-1.64,1-2.34,3.32-2.49,5.15C448.37,368.51,450,373,450,373Z" style="fill:#263238"></path><path d="M472.1,368c-2-1.9-6.84-.92-9,.25-.18.1-2.92,2-2.88,2l0,0c-.77.15-1.59.32-2.48.52-1.65.39-3.51.84-5.5,1.47a58.48,58.48,0,0,0-6.32,2.34,41.87,41.87,0,0,0-6.63,3.59l-.07,0c.5-.63,1.85-2.43,1.93-2.58,1.24-2.12,2.38-6.95.54-9a3.25,3.25,0,0,0-4.83.13c-1.31,1.44-1.38,3.83-1,5.63.38,2,3,5.7,3.16,6a56.73,56.73,0,0,0-6,4.81c-1.11,1-2.19,2.05-3.26,3.11.41-.56.78-1.06.83-1.14,1.23-2.12,2.37-6.94.54-9a3.26,3.26,0,0,0-4.84.13c-1.31,1.44-1.38,3.83-1,5.63s2.48,5,3.05,5.83l-1.22,1.23c-1.94,2-3.87,4-5.83,5.86-.69.67-1.39,1.3-2.09,1.93.37-.49.68-.91.72-1,1.23-2.12,2.37-6.94.54-9a3.25,3.25,0,0,0-4.84.14c-1.3,1.43-1.37,3.82-1,5.62s2.27,4.69,2.95,5.68c-.73.63-1.47,1.26-2.21,1.83-.52.38-1,.79-1.53,1.14l-1.56,1.08c-1,.64-2.07,1.32-3.08,1.92-.7.43-1.37.82-2.05,1.22.69-.65,2-2,2.12-2.09a12.74,12.74,0,0,0,2.41-5.9,4.07,4.07,0,0,0,.4-.59,3.26,3.26,0,0,0-1.47-4.62c-2.53-1.06-6.71,1.61-8.3,3.47-.1.11-1,1.42-1.53,2.25.24-.53.49-1.05.74-1.61.49-1.1,1-2.22,1.46-3.41.22-.59.44-1.18.67-1.78s.41-1.23.63-1.86c.46-1.46.85-3,1.22-4.48,1,.44,4.41,1.92,6.25,1.92s4.17-.5,5.34-2a3.25,3.25,0,0,0-.75-4.78c-2.35-1.43-6.88.57-8.74,2.17-.12.1-1.32,1.4-2,2.12.21-.91.43-1.82.62-2.76.53-2.69,1-5.43,1.45-8.17.14-.83.3-1.67.45-2.5.34.16,4.4,2,6.46,2,1.83,0,4.17-.5,5.34-2a3.25,3.25,0,0,0-.75-4.78c-2.35-1.43-6.88.57-8.74,2.17-.14.12-1.87,2-2.29,2.49.33-1.84.68-3.67,1.09-5.46a58.79,58.79,0,0,1,2.1-7.12c.16.08,4.39,2,6.5,2,1.83,0,4.17-.5,5.34-2a3.25,3.25,0,0,0-.75-4.78c-2.35-1.44-6.88.57-8.74,2.17-.14.12-2,2.14-2.32,2.53l.14-.42a42.51,42.51,0,0,1,3.36-6.64c.72-1.17,1.46-2.26,2.21-3.29.75.44,4.2,2.43,6.1,2.65s4.2,0,5.53-1.45a3.24,3.24,0,0,0-.22-4.83c-2.17-1.68-6.9-.19-8.92,1.19-.11.08-1.14,1-1.89,1.63.35-.46.69-.95,1-1.38,1.28-1.65,2.54-3.07,3.67-4.33.65-.71,1.25-1.34,1.82-1.92,1,.06,4.85.22,6.6-.46s3.71-2,4.24-3.83a3.25,3.25,0,0,0-2.42-4.19c-2.7-.49-6.21,3-7.37,5.18-.1.18-1.32,3.29-1.27,3.29H424c-.55.55-1.15,1.15-1.78,1.81-1.16,1.23-2.46,2.63-3.77,4.26a56.21,56.21,0,0,0-4,5.43,41.88,41.88,0,0,0-3.55,6.65l0,.09c.07-.8.19-3.05.19-3.23-.14-2.44-1.85-7.1-4.51-7.79a3.25,3.25,0,0,0-4,2.78c-.3,1.92,1,3.95,2.23,5.27,1.44,1.48,5.61,3.12,5.95,3.25a56.21,56.21,0,0,0-2.34,7.31c-.37,1.45-.7,2.92-1,4.39,0-.69.07-1.31.06-1.4-.14-2.45-1.85-7.1-4.51-7.79a3.25,3.25,0,0,0-4,2.78c-.29,1.91,1,3.94,2.24,5.26s4.82,2.8,5.76,3.18c-.11.57-.23,1.13-.34,1.7-.52,2.73-1,5.45-1.62,8.11-.21.93-.45,1.85-.68,2.76,0-.62.06-1.14.05-1.22-.14-2.45-1.85-7.1-4.51-7.79a3.25,3.25,0,0,0-4,2.78c-.29,1.92,1,4,2.24,5.26s4.48,2.66,5.59,3.11c-.26.93-.53,1.87-.83,2.76-.22.6-.39,1.19-.65,1.79s-.47,1.18-.71,1.76c-.49,1.1-1,2.24-1.5,3.3-.35.74-.69,1.44-1,2.15.22-.93.6-2.76.62-2.91.23-2.45-.76-7.3-3.28-8.39a3.26,3.26,0,0,0-4.34,2.15c-.58,1.85.36,4.05,1.42,5.54,1.17,1.65,4.88,3.83,5.35,4.09-.58,1.17-1.15,2.3-1.71,3.36-.72,1.39-1.42,2.68-2.08,3.86.29.43.67,1,1.1,1.59q1.14-2.11,2.43-4.71c.59-1.18,1.2-2.46,1.81-3.78a33.37,33.37,0,0,0,4.05.9c.19,2.06,2,5.67,2.19,6.14-1.13.65-2.23,1.28-3.28,1.86-1.8,1-3.47,1.87-5,2.63.34.45.71.92,1.09,1.4,1.42-.77,3-1.63,4.68-2.62,1.14-.66,2.35-1.39,3.59-2.15.34.4,3.17,3.66,5,4.51,1.66.77,4,1.29,5.7.38a3.25,3.25,0,0,0,1.33-4.65c-1.53-2.29-6.49-2.37-8.85-1.69-.14,0-1.6.64-2.51,1l1.51-.94c1-.64,2-1.32,3.09-2,.51-.36,1-.73,1.54-1.11s1-.8,1.55-1.2c1.19-1,2.35-2,3.49-3.06.57.89,2.62,4,4.16,5s3.75,1.88,5.58,1.24a3.26,3.26,0,0,0,2-4.41c-1.16-2.48-6.05-3.32-8.48-3-.16,0-1.88.44-2.82.69.68-.65,1.37-1.29,2-2,1.93-2,3.82-4,5.72-6l1.75-1.85c.2.32,2.56,4.11,4.28,5.25,1.52,1,3.75,1.88,5.58,1.24a3.25,3.25,0,0,0,2-4.4c-1.16-2.49-6.05-3.32-8.48-3-.19,0-2.66.62-3.28.81,1.28-1.35,2.58-2.68,3.91-4a58.47,58.47,0,0,1,5.68-4.78c.09.15,2.54,4.11,4.3,5.28,1.53,1,3.76,1.88,5.59,1.24a3.25,3.25,0,0,0,2-4.4c-1.17-2.49-6.05-3.32-8.49-3-.19,0-2.85.67-3.33.83.12-.09.23-.19.35-.27a41.88,41.88,0,0,1,6.46-3.68c1.25-.59,2.46-1.08,3.66-1.54.38.79,2.16,4.36,3.63,5.58s3.52,2.28,5.41,1.85a3.25,3.25,0,0,0,2.48-4.16c-.88-2.6-5.65-4-8.1-3.92-.13,0-1.49.17-2.47.31l1.62-.58c2-.67,3.81-1.16,5.45-1.59.93-.23,1.78-.42,2.57-.59.78.57,3.93,2.85,5.76,3.26s4.18.4,5.66-.86A3.25,3.25,0,0,0,472.1,368Z" style="fill:#263238"></path><path d="M412,342.43c1,1.89,4.92,4.75,4.93,4.75s1.1-3.14,1.15-3.34c.51-2.4.09-7.34-2.29-8.71a3.25,3.25,0,0,0-4.56,1.64C410.48,338.54,411.16,340.83,412,342.43Z" style="fill:#263238"></path><path d="M89.08,389s.46-2.82.47-3c.07-2.1-1-6.21-3.24-7a2.81,2.81,0,0,0-3.61,2.07c-.4,1.62.51,3.45,1.5,4.68C85.36,387.19,89.07,389,89.08,389Z" style="fill:#263238"></path><path d="M68.1,424.56c.39.74.77,1.48,1.11,2.21.22.51.47,1,.66,1.5l.6,1.51c.34,1,.7,2,1,3,.22.66.42,1.3.62,1.95-.41-.71-1.26-2.07-1.34-2.18-1.3-1.66-4.78-4.09-7-3.28a2.79,2.79,0,0,0-1.42,3.9c.73,1.5,2.61,2.31,4.15,2.61,1.7.33,5.3-.5,5.75-.61.33,1.06.65,2.11.93,3.09s.52,1.9.76,2.79h1.52c-.28-1-.6-2.06-.94-3.19s-.71-2.23-1.11-3.41a32.12,32.12,0,0,0,3-1.84,20.32,20.32,0,0,0,5,2.52c-.31,1.08-.63,2.12-.94,3.1s-.63,1.93-.93,2.82h1.54c.24-.77.48-1.57.73-2.42.32-1.09.64-2.25,1-3.46.45.05,4.14.41,5.78-.15,1.49-.5,3.25-1.56,3.77-3.14a2.79,2.79,0,0,0-1.93-3.68c-2.3-.51-5.43,2.37-6.5,4.18-.06.11-.62,1.35-1,2.13.13-.49.25-1,.38-1.47.25-1,.48-2,.72-3.1.1-.53.2-1.07.31-1.6s.16-1.11.24-1.67c.17-1.3.28-2.63.36-4,.88.22,4,1,5.58.69s3.44-1,4.2-2.54a2.78,2.78,0,0,0-1.35-3.92c-2.2-.86-5.73,1.51-7.06,3.14-.08.1-.9,1.38-1.34,2.09,0-.8.09-1.61.1-2.42,0-2.36,0-4.74,0-7.12,0-.73,0-1.46,0-2.19.31.08,4,1,5.76.74,1.55-.28,3.45-1.05,4.21-2.54a2.78,2.78,0,0,0-1.36-3.92c-2.19-.86-5.72,1.51-7,3.14-.1.13-1.29,2-1.56,2.45,0-1.6,0-3.2.1-4.77a49.78,49.78,0,0,1,.7-6.34c.15,0,4,1.06,5.8.74,1.55-.27,3.45-1,4.21-2.53a2.78,2.78,0,0,0-1.35-3.92c-2.2-.86-5.73,1.51-7.06,3.14-.11.13-1.38,2.11-1.58,2.49,0-.12,0-.25,0-.37a35.85,35.85,0,0,1,1.85-6.12c.42-1.1.89-2.13,1.37-3.12.7.27,3.91,1.43,5.55,1.33s3.54-.66,4.46-2a2.8,2.8,0,0,0-.91-4.06c-2.09-1.09-5.86.88-7.36,2.35-.08.08-.83,1-1.36,1.66.23-.44.45-.9.67-1.32.83-1.58,1.68-3,2.45-4.21.44-.69.86-1.32,1.25-1.89.82-.1,4.13-.55,5.51-1.38s2.84-2.22,3-3.88a2.79,2.79,0,0,0-2.68-3.17c-2.35,0-4.79,3.47-5.45,5.48,0,.17-.62,3-.58,3h0c-.39.55-.8,1.14-1.24,1.8-.79,1.21-1.68,2.59-2.55,4.16a49.24,49.24,0,0,0-2.55,5.19,36.14,36.14,0,0,0-2,6.16.17.17,0,0,0,0,.07c-.06-.68-.29-2.6-.33-2.75-.48-2-2.63-5.72-5-5.91a2.8,2.8,0,0,0-2.93,2.95c0,1.66,1.41,3.19,2.68,4.11,1.44,1,5.21,1.79,5.51,1.85a51,51,0,0,0-.88,6.54c-.09,1.28-.14,2.57-.18,3.86-.07-.59-.14-1.12-.16-1.2-.48-2.05-2.63-5.72-5-5.91a2.8,2.8,0,0,0-2.93,2.95c0,1.66,1.41,3.19,2.68,4.11s4.5,1.65,5.35,1.82l0,1.49c0,2.39-.06,4.76-.16,7.1,0,.82-.1,1.63-.16,2.43-.06-.52-.12-1-.14-1-.48-2.05-2.62-5.73-5-5.91a2.78,2.78,0,0,0-2.93,2.94c0,1.67,1.4,3.19,2.68,4.11s4.18,1.58,5.19,1.79c-.09.83-.17,1.66-.29,2.46-.1.54-.15,1.07-.28,1.61s-.23,1.06-.34,1.59c-.25,1-.5,2-.77,3-.18.68-.37,1.32-.56,2,.05-.82.1-2.42.09-2.55a10.93,10.93,0,0,0-2-5.1,2.59,2.59,0,0,0-.1-.61,2.79,2.79,0,0,0-3.64-2c-2.2.84-3.23,5-3.11,7.07,0,.13.22,1.46.38,2.31-.17-.49-.32-.95-.5-1.45-.34-1-.71-1.94-1.11-3l-.63-1.5c-.2-.51-.47-1-.71-1.53-.58-1.18-1.22-2.35-1.89-3.51.86-.3,3.88-1.42,5-2.5s2.29-2.78,2.11-4.43a2.79,2.79,0,0,0-3.3-2.53c-2.3.49-3.94,4.42-4.15,6.51,0,.13,0,1.65,0,2.49-.41-.7-.81-1.39-1.25-2.08-1.26-2-2.6-4-3.92-5.94-.41-.61-.81-1.22-1.21-1.83.31-.1,3.93-1.35,5.21-2.56s2.3-2.78,2.12-4.43a2.8,2.8,0,0,0-3.3-2.53c-2.3.49-3.94,4.42-4.15,6.51,0,.16,0,2.35,0,2.9-.88-1.33-1.75-2.67-2.55-4a47.55,47.55,0,0,1-2.9-5.68c.14,0,3.92-1.33,5.24-2.58,1.14-1.08,2.3-2.77,2.11-4.43a2.79,2.79,0,0,0-3.29-2.53c-2.31.5-3.94,4.43-4.15,6.52,0,.17,0,2.52.05,2.95-.05-.12-.11-.23-.16-.34a36.54,36.54,0,0,1-1.83-6.12c-.26-1.16-.43-2.27-.58-3.36.73-.17,4.06-1,5.36-2s2.59-2.5,2.59-4.17a2.8,2.8,0,0,0-3-2.88c-2.34.24-4.4,4-4.84,6,0,.11-.14,1.27-.21,2.12-.06-.49-.13-1-.18-1.47-.18-1.77-.24-3.41-.28-4.86,0-.82,0-1.57,0-2.26.63-.54,3.15-2.74,3.84-4.19s1.14-3.42.37-4.9a2.78,2.78,0,0,0-4-1.17c-2,1.29-2.09,5.54-1.53,7.57,0,.18,1.12,2.84,1.16,2.81l0,0c0,.67,0,1.39,0,2.17,0,1.46,0,3.1.17,4.88a48.86,48.86,0,0,0,.74,5.74,36.46,36.46,0,0,0,1.72,6.24l0,.07c-.43-.54-1.68-2-1.79-2.12-1.54-1.44-5.35-3.32-7.42-2.18a2.79,2.79,0,0,0-.82,4.07c.95,1.37,2.94,1.89,4.51,2,1.77.08,5.33-1.37,5.62-1.49a49,49,0,0,0,2.87,5.94c.62,1.11,1.29,2.22,2,3.32-.38-.46-.73-.86-.79-.91-1.53-1.44-5.35-3.33-7.41-2.18a2.79,2.79,0,0,0-.82,4.07c1,1.37,2.93,1.88,4.51,1.95s4.65-1.11,5.46-1.43c.27.42.53.84.79,1.26,1.29,2,2.58,4,3.79,6,.42.71.81,1.42,1.21,2.13-.34-.41-.64-.75-.69-.79-1.53-1.45-5.35-3.33-7.41-2.19a2.8,2.8,0,0,0-.82,4.08c.95,1.36,2.93,1.88,4.51,1.95S67.14,424.94,68.1,424.56Z" style="fill:#263238"></path><path d="M47.34,392.45c1.76.56,5.86,0,5.87,0S52,389.89,52,389.73c-1.1-1.79-4.29-4.61-6.58-4.06a2.78,2.78,0,0,0-1.86,3.71C44.06,391,45.84,392,47.34,392.45Z" style="fill:#263238"></path><path d="M139.23,403.18s.34-2,.34-2.18c.06-1.53-.74-4.52-2.35-5.1a2,2,0,0,0-2.63,1.5,4.25,4.25,0,0,0,1.1,3.4A14.38,14.38,0,0,0,139.23,403.18Z" style="fill:#263238"></path><path d="M124,429c.28.54.56,1.07.81,1.61.16.36.34.71.48,1.08s.29.74.43,1.11c.25.71.52,1.44.74,2.14.17.49.31.95.46,1.42-.3-.51-.92-1.51-1-1.58-.94-1.21-3.48-3-5.09-2.39a2,2,0,0,0-1,2.84,4.28,4.28,0,0,0,3,1.9,13.92,13.92,0,0,0,4.18-.45c.24.78.47,1.53.67,2.25s.39,1.39.56,2h1.1c-.2-.73-.43-1.5-.68-2.32s-.52-1.63-.81-2.48a22.65,22.65,0,0,0,2.22-1.34,15.07,15.07,0,0,0,3.63,1.84c-.23.78-.45,1.53-.68,2.24s-.46,1.41-.67,2.06h1.11c.17-.56.35-1.14.53-1.76.24-.79.47-1.64.7-2.52a13.58,13.58,0,0,0,4.21-.11,4.21,4.21,0,0,0,2.74-2.28,2,2,0,0,0-1.4-2.68c-1.68-.37-3.95,1.72-4.73,3-.05.08-.45,1-.7,1.55.1-.35.19-.7.28-1.07.19-.73.35-1.47.53-2.26.07-.38.15-.77.22-1.16s.12-.81.18-1.21c.12-1,.2-1.92.26-2.89a13.32,13.32,0,0,0,4.06.5,4.3,4.3,0,0,0,3.06-1.84,2,2,0,0,0-1-2.86c-1.59-.63-4.16,1.1-5.13,2.29-.06.07-.66,1-1,1.52,0-.59.06-1.17.07-1.77,0-1.71,0-3.45,0-5.18,0-.53,0-1.06,0-1.59a14.12,14.12,0,0,0,4.19.54,4.26,4.26,0,0,0,3.06-1.84,2,2,0,0,0-1-2.86c-1.6-.63-4.17,1.1-5.14,2.29-.07.09-.93,1.42-1.13,1.78,0-1.17,0-2.33.07-3.48a36.31,36.31,0,0,1,.52-4.61,14.1,14.1,0,0,0,4.21.54,4.2,4.2,0,0,0,3.06-1.84,2,2,0,0,0-1-2.85c-1.6-.63-4.17,1.1-5.13,2.28-.08.1-1,1.54-1.15,1.81a2.51,2.51,0,0,1,0-.27,26,26,0,0,1,1.34-4.45c.31-.8.65-1.55,1-2.26a13.6,13.6,0,0,0,4,1,4.23,4.23,0,0,0,3.24-1.49,2,2,0,0,0-.66-3c-1.52-.8-4.27.63-5.36,1.71-.06.06-.6.72-1,1.2.16-.32.32-.65.48-1,.6-1.15,1.22-2.16,1.78-3.06.32-.51.63-1,.91-1.38a13.29,13.29,0,0,0,4-1,4.23,4.23,0,0,0,2.19-2.82,2,2,0,0,0-2-2.31c-1.71,0-3.49,2.53-4,4,0,.13-.46,2.17-.43,2.17h0c-.28.4-.58.83-.9,1.31-.58.88-1.22,1.89-1.85,3a34.15,34.15,0,0,0-1.86,3.78,26.61,26.61,0,0,0-1.46,4.47.13.13,0,0,1,0,.06c0-.5-.21-1.9-.23-2-.36-1.49-1.91-4.17-3.63-4.3a2,2,0,0,0-2.13,2.14,4.28,4.28,0,0,0,1.95,3,13.91,13.91,0,0,0,4,1.35,36.38,36.38,0,0,0-.64,4.76c-.07.93-.11,1.86-.13,2.81-.05-.44-.1-.82-.12-.88-.35-1.49-1.91-4.16-3.62-4.3a2,2,0,0,0-2.13,2.15,4.25,4.25,0,0,0,1.95,3,13.49,13.49,0,0,0,3.89,1.33c0,.36,0,.72,0,1.08,0,1.73,0,3.46-.12,5.16,0,.6-.07,1.19-.11,1.77-.05-.38-.09-.7-.1-.75-.36-1.49-1.92-4.16-3.63-4.3a2,2,0,0,0-2.13,2.14,4.25,4.25,0,0,0,2,3,13.13,13.13,0,0,0,3.78,1.31c-.06.6-.13,1.2-.21,1.78-.07.39-.11.78-.2,1.17s-.17.78-.25,1.16c-.18.73-.37,1.49-.56,2.2-.14.49-.27,1-.41,1.43,0-.59.07-1.76.06-1.86a7.81,7.81,0,0,0-1.45-3.7,2.34,2.34,0,0,0-.07-.45,2,2,0,0,0-2.65-1.45c-1.6.61-2.35,3.61-2.27,5.14,0,.09.17,1.07.28,1.68-.12-.35-.23-.69-.36-1.05-.25-.71-.52-1.42-.81-2.17l-.45-1.1c-.15-.36-.35-.73-.52-1.11-.42-.86-.89-1.7-1.38-2.55a13.35,13.35,0,0,0,3.66-1.82,4.27,4.27,0,0,0,1.54-3.22,2,2,0,0,0-2.4-1.85c-1.68.37-2.87,3.22-3,4.75,0,.09,0,1.2,0,1.81-.3-.51-.59-1-.91-1.52-.92-1.45-1.89-2.88-2.86-4.32l-.87-1.33a13.77,13.77,0,0,0,3.79-1.87,4.25,4.25,0,0,0,1.54-3.22,2,2,0,0,0-2.4-1.84c-1.68.36-2.87,3.22-3,4.74,0,.12,0,1.71,0,2.11-.64-1-1.27-1.95-1.85-2.93a35.76,35.76,0,0,1-2.11-4.13,14.36,14.36,0,0,0,3.81-1.88,4.27,4.27,0,0,0,1.54-3.22,2,2,0,0,0-2.4-1.84c-1.67.36-2.87,3.21-3,4.74,0,.12,0,1.83,0,2.14,0-.08-.08-.16-.11-.25a25.53,25.53,0,0,1-1.34-4.45c-.18-.84-.31-1.65-.42-2.44a13.59,13.59,0,0,0,3.9-1.42,4.26,4.26,0,0,0,1.89-3,2,2,0,0,0-2.18-2.09c-1.71.17-3.21,2.88-3.53,4.38,0,.08-.1.93-.15,1.55,0-.36-.1-.73-.13-1.08-.13-1.29-.18-2.48-.2-3.53,0-.6,0-1.14,0-1.65a13.68,13.68,0,0,0,2.8-3,4.24,4.24,0,0,0,.27-3.56,2,2,0,0,0-2.9-.85c-1.44.94-1.52,4-1.11,5.51,0,.13.81,2.06.84,2l0,0c0,.48,0,1,0,1.58,0,1.06,0,2.25.12,3.55a35.52,35.52,0,0,0,.54,4.18,26.06,26.06,0,0,0,1.25,4.53l0,.05c-.31-.39-1.22-1.46-1.3-1.54-1.11-1-3.89-2.41-5.39-1.58a2,2,0,0,0-.6,3,4.28,4.28,0,0,0,3.28,1.42,14.07,14.07,0,0,0,4.09-1.09,35.67,35.67,0,0,0,2.09,4.32c.45.81.94,1.62,1.43,2.42-.28-.33-.53-.63-.57-.66-1.12-1.05-3.89-2.42-5.39-1.59a2,2,0,0,0-.6,3,4.24,4.24,0,0,0,3.28,1.42,13.41,13.41,0,0,0,4-1l.58.92c.94,1.46,1.87,2.91,2.75,4.37.31.51.6,1,.89,1.54l-.5-.57c-1.12-1.05-3.9-2.42-5.4-1.59a2,2,0,0,0-.59,3A4.23,4.23,0,0,0,120.1,430,12.65,12.65,0,0,0,124,429Z" style="fill:#263238"></path><path d="M108.86,405.68a14.47,14.47,0,0,0,4.27,0s-.84-1.9-.91-2c-.8-1.31-3.12-3.36-4.79-3a2,2,0,0,0-1.35,2.7A4.22,4.22,0,0,0,108.86,405.68Z" style="fill:#263238"></path></g></svg>