<svg xmlns="http://www.w3.org/2000/svg" viewBox="0 0 500 500"><g id="freepik--piggy-bank--inject-43"><polygon points="145.78 410.73 153.79 396.03 125.14 370.92 122.9 410.73 145.78 410.73" style="fill:#92E3A9"></polygon><polygon points="145.78 410.73 153.79 396.03 125.14 370.92 122.9 410.73 145.78 410.73" style="opacity:0.1"></polygon><path d="M244.52,243.22c16.07-11,29.53-9.87,34-6.66s-9.73,27.59-9.73,27.59A38.53,38.53,0,0,1,244.52,243.22Z" style="fill:#92E3A9"></path><path d="M252.17,254.27c9.05-8.89,18.28-11.74,20.78-10.25s-5.53,18.63-5.53,18.63S256.57,264.21,252.17,254.27Z" style="opacity:0.2"></path><path d="M104.89,277.7l-.91-.46a91.74,91.74,0,0,1,8.83-14.06l.81.62A91.69,91.69,0,0,0,104.89,277.7Z" style="fill:#92E3A9"></path><path d="M100.13,289l-1-.33c.76-2.23,1.62-4.46,2.56-6.62l.94.41C101.73,284.58,100.88,286.78,100.13,289Z" style="fill:#92E3A9"></path><path d="M287.11,316.75c0,49.65-37.38,89.89-91.34,89.89s-97.7-40.24-97.7-89.89,43.74-89.89,97.7-89.89S287.11,267.1,287.11,316.75Z" style="fill:#92E3A9"></path><path d="M182.75,397.12l-3.91,8.18q4.24.69,8.61,1Z" style="opacity:0.1"></path><polygon points="176.83 416.24 188.07 396.03 152.12 382.89 147.52 416.24 176.83 416.24" style="fill:#92E3A9"></polygon><polygon points="229.19 416.24 219.45 396.03 253.68 382.89 255.95 416.24 229.19 416.24" style="fill:#92E3A9"></polygon><path d="M253.78,329.74c0,13.44-11.88,24.33-26.49,24.33s-26.44-10.89-26.44-24.33,11.84-24.33,26.44-24.33S253.78,316.3,253.78,329.74Z" style="opacity:0.2"></path><ellipse cx="218.51" cy="329.34" rx="4.49" ry="8.36" style="opacity:0.2"></ellipse><path d="M186.4,284.36c1.29,3.93.1,8.22-2.65,9.57s-6-.75-7.32-4.68-.11-8.22,2.64-9.57S185.11,280.42,186.4,284.36Z" style="opacity:0.4"></path><path d="M256,284.54c-1,3.93.23,8.17,2.71,9.46s5.28-.85,6.26-4.79-.23-8.17-2.71-9.46S257,280.6,256,284.54Z" style="opacity:0.4"></path><ellipse cx="242.4" cy="329.34" rx="4.49" ry="8.36" style="opacity:0.2"></ellipse><path d="M167.21,242.4c-17.41-14.42-33-15.54-38.38-12.92s8.61,30.89,8.61,30.89S156.54,259.25,167.21,242.4Z" style="fill:#92E3A9"></path><path d="M157.41,252.78c-9.55-11-19.87-15.58-22.88-14.44S139.15,259,139.15,259,151.45,262.54,157.41,252.78Z" style="opacity:0.2"></path><path d="M202.37,234.68h14.71s-3.2-3.52-14.06-4.59a68.29,68.29,0,0,0-18.4,1S196.74,230.82,202.37,234.68Z" style="opacity:0.4"></path></g></svg>