<svg width="300" height="300" viewBox="0 0 300 300" fill="none" xmlns="http://www.w3.org/2000/svg">
<path d="M250.698 79.89C250.698 79.89 236.628 51 205.566 46.728C174.504 42.456 152.814 63.306 129.966 74.004C117.966 79.608 104.322 77.43 91.614 80.142C50.964 88.8 35.658 143.13 52.584 174C67.236 200.742 93.024 214.65 132.3 217.86C171.576 221.07 199.116 224.814 234.3 198.606C269.484 172.398 267.108 117.864 250.698 79.89Z" fill="#92E3A9"/>
<path opacity="0.85" d="M250.698 79.89C250.698 79.89 236.628 51 205.566 46.728C174.504 42.456 152.814 63.306 129.966 74.004C117.966 79.608 104.322 77.43 91.614 80.142C50.964 88.8 35.658 143.13 52.584 174C67.236 200.742 93.024 214.65 132.3 217.86C171.576 221.07 199.116 224.814 234.3 198.606C269.484 172.398 267.108 117.864 250.698 79.89Z" fill="white"/>
<path d="M155.898 250.08C212.794 250.08 258.918 246.639 258.918 242.394C258.918 238.149 212.794 234.708 155.898 234.708C99.0016 234.708 52.878 238.149 52.878 242.394C52.878 246.639 99.0016 250.08 155.898 250.08Z" fill="#92E3A9"/>
<path opacity="0.5" d="M155.898 250.08C212.794 250.08 258.918 246.639 258.918 242.394C258.918 238.149 212.794 234.708 155.898 234.708C99.0016 234.708 52.878 238.149 52.878 242.394C52.878 246.639 99.0016 250.08 155.898 250.08Z" fill="white"/>
<path d="M255.096 233.532H58.002" stroke="black" stroke-miterlimit="10"/>
<path d="M218.088 162.48C218.443 163.292 218.627 164.168 218.627 165.054C218.627 165.94 218.443 166.816 218.088 167.628H236.268C236.268 167.628 238.512 167.076 238.512 165.054C238.366 164.494 238.092 163.974 237.712 163.537C237.332 163.1 236.857 162.757 236.322 162.534L218.088 162.48Z" fill="white"/>
<path opacity="0.25" d="M237.132 162.918C236.381 162.577 235.552 162.443 234.732 162.528H233.01H228.534H219.834C219.298 162.588 218.756 162.588 218.22 162.528C218.375 162.867 218.493 163.221 218.574 163.584H236.73V167.508C237.231 167.326 237.668 167.002 237.987 166.576C238.307 166.15 238.496 165.64 238.53 165.108C238.544 164.689 238.438 164.275 238.225 163.914C238.013 163.553 237.703 163.26 237.33 163.068L237.132 162.918Z" fill="black"/>
<path d="M235.584 168.336H217.32C217.175 168.336 217.036 168.278 216.934 168.176C216.832 168.074 216.774 167.935 216.774 167.79C216.774 167.645 216.832 167.506 216.934 167.404C217.036 167.301 217.175 167.244 217.32 167.244H235.584C235.879 167.276 236.177 167.245 236.459 167.154C236.741 167.062 237 166.913 237.221 166.715C237.441 166.517 237.617 166.275 237.738 166.004C237.859 165.733 237.921 165.44 237.921 165.144C237.921 164.848 237.859 164.555 237.738 164.284C237.617 164.013 237.441 163.771 237.221 163.573C237 163.375 236.741 163.226 236.459 163.134C236.177 163.043 235.879 163.012 235.584 163.044H217.482C217.337 163.044 217.198 162.986 217.096 162.884C216.994 162.782 216.936 162.643 216.936 162.498C216.936 162.353 216.994 162.214 217.096 162.112C217.198 162.009 217.337 161.952 217.482 161.952H235.584C236.016 161.933 236.447 162.002 236.852 162.155C237.257 162.307 237.626 162.54 237.939 162.839C238.251 163.138 238.5 163.497 238.669 163.895C238.839 164.293 238.927 164.721 238.927 165.153C238.927 165.585 238.839 166.013 238.669 166.411C238.5 166.809 238.251 167.168 237.939 167.467C237.626 167.766 237.257 167.999 236.852 168.151C236.447 168.304 236.016 168.373 235.584 168.354V168.336Z" fill="#263238"/>
<path d="M237.636 168.828C237.281 169.64 237.098 170.516 237.098 171.402C237.098 172.288 237.281 173.164 237.636 173.976H219.456C219.456 173.976 217.212 173.43 217.212 171.402C217.358 170.842 217.631 170.324 218.011 169.887C218.391 169.451 218.867 169.109 219.402 168.888L237.636 168.828Z" fill="white"/>
<path opacity="0.25" d="M218.586 169.266C219.347 168.923 220.186 168.791 221.016 168.882H222.732H227.208L235.914 168.852C236.45 168.915 236.992 168.915 237.528 168.852C237.369 169.19 237.249 169.544 237.168 169.908H219V173.838C218.499 173.657 218.062 173.333 217.742 172.907C217.422 172.48 217.234 171.97 217.2 171.438C217.188 171.02 217.294 170.608 217.506 170.248C217.719 169.888 218.028 169.595 218.4 169.404L218.586 169.266Z" fill="black"/>
<path d="M220.14 174.69H238.404C238.54 174.676 238.665 174.612 238.757 174.51C238.848 174.409 238.899 174.277 238.899 174.141C238.899 174.005 238.848 173.873 238.757 173.772C238.665 173.67 238.54 173.606 238.404 173.592H220.14C219.845 173.624 219.547 173.593 219.265 173.502C218.983 173.41 218.724 173.261 218.503 173.063C218.283 172.865 218.107 172.623 217.986 172.352C217.866 172.081 217.803 171.788 217.803 171.492C217.803 171.196 217.866 170.903 217.986 170.632C218.107 170.361 218.283 170.119 218.503 169.921C218.724 169.723 218.983 169.574 219.265 169.482C219.547 169.391 219.845 169.36 220.14 169.392H238.236C238.313 169.4 238.391 169.392 238.464 169.368C238.538 169.344 238.605 169.305 238.663 169.253C238.72 169.201 238.766 169.138 238.798 169.067C238.829 168.997 238.845 168.92 238.845 168.843C238.845 168.766 238.829 168.689 238.798 168.618C238.766 168.548 238.72 168.485 238.663 168.433C238.605 168.381 238.538 168.342 238.464 168.318C238.391 168.294 238.313 168.286 238.236 168.294H220.14C219.703 168.267 219.265 168.33 218.853 168.479C218.441 168.628 218.064 168.86 217.744 169.16C217.425 169.46 217.171 169.822 216.997 170.224C216.823 170.626 216.734 171.06 216.734 171.498C216.734 171.936 216.823 172.369 216.997 172.772C217.171 173.174 217.425 173.536 217.744 173.836C218.064 174.136 218.441 174.368 218.853 174.517C219.265 174.666 219.703 174.729 220.14 174.702V174.69Z" fill="#263238"/>
<path d="M187.2 160.74L188.4 158.616H179.706L180.936 160.74C179.214 162.24 177.42 164.34 177.42 166.74C177.42 171.282 180.39 174.966 184.05 174.966C187.71 174.966 190.68 171.282 190.68 166.74C190.68 164.364 188.886 162.24 187.2 160.74Z" fill="#263238"/>
<path d="M199.8 163.524L200.79 161.814H193.8L194.79 163.524C193.404 164.724 191.964 166.434 191.964 168.324C191.964 171.978 194.364 174.924 197.298 174.924C200.232 174.924 202.626 171.96 202.626 168.324C202.644 166.434 201.204 164.73 199.8 163.524Z" fill="#263238"/>
<path d="M209.892 165.774L210.684 164.4H205.074L205.866 165.774C204.75 166.74 203.598 168.114 203.598 169.638C203.598 172.572 205.512 174.954 207.876 174.954C210.24 174.954 212.16 172.554 212.16 169.638C212.16 168.114 211.002 166.74 209.892 165.774Z" fill="#263238"/>
<path d="M177.684 239.802H175.92L174.402 211.002H179.202L177.684 239.802Z" fill="#263238"/>
<path d="M244.404 239.802H242.64L241.122 211.002H245.922L244.404 239.802Z" fill="#263238"/>
<path d="M247.8 174.87H172.2V214.602H247.8V174.87Z" fill="#92E3A9"/>
<path opacity="0.4" d="M247.8 174.87H172.2V214.602H247.8V174.87Z" fill="white"/>
<path d="M244.41 177.402H175.59V212.064H244.41V177.402Z" stroke="#263238" stroke-linecap="round" stroke-linejoin="round"/>
<path d="M209.778 177.402V211.752" stroke="#263238" stroke-linecap="round" stroke-linejoin="round"/>
<path d="M179.94 191.484H178.248V198.804H179.94V191.484Z" fill="#263238"/>
<path d="M242.16 191.484H240.468V198.804H242.16V191.484Z" fill="#263238"/>
<path d="M97.314 227.55C97.314 227.55 95.418 225.864 95.628 214.95C95.838 204.036 104.028 189.504 98.364 170.784" stroke="#263238" stroke-linecap="round" stroke-linejoin="round"/>
<path d="M99.204 173.076C99.204 173.076 98.364 166.344 95.208 164.244C92.052 162.144 84.27 164.244 81.96 169.5C79.65 174.756 82.17 176.652 82.17 176.652C83.0992 175.294 84.3155 174.157 85.7329 173.321C87.1503 172.486 88.734 171.972 90.372 171.816C95.838 171.39 99.204 173.076 99.204 173.076Z" fill="#92E3A9"/>
<path opacity="0.19" d="M90.372 171.816C95.472 171.42 98.742 172.86 99.156 173.052C98.352 170.328 95.646 167.922 91.632 167.394C86.796 166.764 82.17 176.652 82.17 176.652C83.0992 175.294 84.3155 174.157 85.7329 173.321C87.1503 172.486 88.734 171.972 90.372 171.816Z" fill="black"/>
<path d="M100.254 186.954C100.254 186.954 95.934 181.728 92.142 181.65C88.35 181.572 82.914 187.518 83.784 193.2C84.654 198.882 87.804 199.116 87.804 199.116C87.8592 197.472 88.2747 195.86 89.0212 194.394C89.7677 192.928 90.8269 191.644 92.124 190.632C96.516 187.344 100.254 186.954 100.254 186.954Z" fill="#92E3A9"/>
<path opacity="0.19" d="M92.124 190.632C96.222 187.566 99.75 187.032 100.206 186.96C98.058 185.094 94.488 184.518 90.816 186.228C86.4 188.298 87.816 199.116 87.816 199.116C87.8698 197.473 88.2834 195.862 89.0278 194.396C89.7721 192.93 90.8291 191.645 92.124 190.632Z" fill="black"/>
<path d="M99.048 195.6C99.048 195.6 103.368 190.374 107.16 190.29C110.952 190.206 116.388 196.164 115.518 201.84C114.648 207.516 111.498 207.762 111.498 207.762C111.443 206.118 111.028 204.506 110.281 203.04C109.535 201.574 108.475 200.289 107.178 199.278C102.786 195.966 99.048 195.6 99.048 195.6Z" fill="#92E3A9"/>
<path opacity="0.19" d="M107.178 199.26C103.08 196.188 99.552 195.66 99.096 195.588C101.244 193.722 104.814 193.14 108.48 194.856C112.902 196.92 111.48 207.744 111.48 207.744C111.427 206.101 111.015 204.49 110.271 203.024C109.528 201.558 108.472 200.273 107.178 199.26Z" fill="black"/>
<path d="M95.472 214.926C95.472 214.926 99.792 209.7 103.584 209.622C107.376 209.544 112.812 215.496 111.942 221.172C111.072 226.848 107.922 227.094 107.922 227.094C107.867 225.449 107.452 223.836 106.706 222.369C105.959 220.902 104.9 219.617 103.602 218.604C99.216 215.316 95.472 214.926 95.472 214.926Z" fill="#92E3A9"/>
<path opacity="0.19" d="M103.602 218.604C99.504 215.538 95.976 215.004 95.52 214.938C97.668 213.066 101.238 212.49 104.91 214.2C109.326 216.27 107.91 227.094 107.91 227.094C107.857 225.45 107.443 223.838 106.699 222.371C105.955 220.904 104.897 219.618 103.602 218.604Z" fill="black"/>
<path d="M97.986 203.016C97.986 203.016 94.854 199.23 92.112 199.17C89.37 199.11 85.422 203.4 86.058 207.54C86.694 211.68 88.968 211.824 88.968 211.824C89.0078 210.633 89.309 209.465 89.8503 208.403C90.3915 207.342 91.1596 206.412 92.1 205.68C93.8082 204.314 95.832 203.398 97.986 203.016Z" fill="#92E3A9"/>
<path opacity="0.19" d="M92.1 205.68C93.805 204.33 95.8127 203.416 97.95 203.016C96.396 201.666 93.81 201.246 91.152 202.488C87.948 204 88.968 211.8 88.968 211.8C89.0113 210.613 89.3142 209.45 89.8553 208.393C90.3964 207.335 91.1626 206.409 92.1 205.68Z" fill="black"/>
<path d="M99.03 173.148C99.03 173.148 102.162 169.362 104.91 169.302C107.658 169.242 111.594 173.556 110.964 177.672C110.334 181.788 108.048 181.962 108.048 181.962C108.01 180.768 107.709 179.597 107.168 178.532C106.627 177.468 105.858 176.535 104.916 175.8C103.205 174.44 101.182 173.528 99.03 173.148Z" fill="#92E3A9"/>
<path opacity="0.19" d="M104.916 175.8C103.213 174.448 101.204 173.535 99.066 173.142C100.62 171.786 103.206 171.372 105.864 172.608C109.068 174.108 108.054 181.95 108.054 181.95C108.012 180.758 107.709 179.59 107.167 178.527C106.625 177.465 105.856 176.534 104.916 175.8Z" fill="black"/>
<path d="M95.736 216.504C95.736 216.504 92.604 212.718 89.856 212.664C87.108 212.61 83.172 216.918 83.802 221.028C84.432 225.138 86.712 225.318 86.712 225.318C86.7519 224.127 87.0531 222.959 87.5943 221.897C88.1355 220.836 88.9036 219.906 89.844 219.174C91.5548 217.807 93.5802 216.889 95.736 216.504Z" fill="#92E3A9"/>
<path opacity="0.19" d="M89.844 219.174C91.5497 217.822 93.56 216.907 95.7 216.51C94.146 215.16 91.554 214.71 88.896 215.982C85.698 217.476 86.712 225.318 86.712 225.318C86.7519 224.127 87.0531 222.959 87.5943 221.897C88.1355 220.836 88.9036 219.906 89.844 219.174Z" fill="black"/>
<path d="M88.296 225.654C86.9404 227.156 86.1826 229.103 86.166 231.126C86.166 236.118 90.828 240.168 96.576 240.168C102.324 240.168 106.986 236.118 106.986 231.126C106.969 229.103 106.212 227.156 104.856 225.654H88.296Z" fill="#263238" stroke="#263238" stroke-linecap="round" stroke-linejoin="round"/>
<path d="M133.602 57.798H92.802V116.598H133.602V57.798Z" fill="#92E3A9"/>
<path opacity="0.59" d="M133.602 57.798H92.802V116.598H133.602V57.798Z" fill="white"/>
<path d="M127.77 66.198H98.628V108.198H127.77V66.198Z" fill="white"/>
<path d="M80.706 89.802H52.398V130.602H80.706V89.802Z" fill="#92E3A9"/>
<path opacity="0.59" d="M80.706 89.802H52.398V130.602H80.706V89.802Z" fill="white"/>
<path d="M76.662 95.628H56.442V124.77H76.662V95.628Z" fill="white"/>
<path d="M194.106 108.6H165.798V149.4H194.106V108.6Z" fill="#92E3A9"/>
<path opacity="0.59" d="M194.106 108.6H165.798V149.4H194.106V108.6Z" fill="white"/>
<path d="M190.062 114.426H169.842V143.568H190.062V114.426Z" fill="white"/>
<path d="M210.084 74.856C211.42 73.5194 212.236 71.7502 212.385 69.8661C212.534 67.982 212.007 66.1065 210.897 64.5764C209.788 63.0463 208.169 61.9619 206.332 61.5179C204.495 61.0739 202.56 61.2994 200.874 62.154C199.399 60.0831 197.304 58.5342 194.892 57.7308C192.479 56.9274 189.874 56.9109 187.452 57.6839C185.03 58.4568 182.916 59.9791 181.415 62.0313C179.913 64.0835 179.103 66.5594 179.1 69.102C179.1 69.462 179.1 69.816 179.154 70.17C177.606 69.7091 175.978 69.5868 174.379 69.8113C172.779 70.0359 171.247 70.602 169.887 71.4713C168.526 72.3406 167.368 73.4927 166.492 74.8493C165.616 76.2058 165.042 77.735 164.81 79.333C164.578 80.931 164.692 82.5603 165.145 84.1101C165.599 85.66 166.38 87.0941 167.437 88.315C168.494 89.5359 169.801 90.515 171.27 91.1857C172.739 91.8564 174.335 92.203 175.95 92.202H176.274C177.372 94.084 178.956 95.6358 180.86 96.6943C182.764 97.7528 184.918 98.279 187.096 98.2177C189.274 98.1563 191.395 97.5096 193.236 96.3455C195.078 95.1814 196.572 93.5429 197.562 91.602C198.643 92.5876 199.919 93.3361 201.307 93.7995C202.695 94.2629 204.164 94.4309 205.621 94.2928C207.077 94.1548 208.489 93.7136 209.765 92.9977C211.041 92.2818 212.153 91.307 213.03 90.1358C213.907 88.9646 214.53 87.623 214.858 86.197C215.185 84.7711 215.211 83.2923 214.934 81.8557C214.657 80.4191 214.082 79.0564 213.247 77.8551C212.411 76.6538 211.334 75.6404 210.084 74.88V74.856Z" fill="white" stroke="#263238" stroke-linecap="round" stroke-linejoin="round"/>
<path d="M169.044 98.712C170.29 98.712 171.3 97.702 171.3 96.456C171.3 95.2101 170.29 94.2 169.044 94.2C167.798 94.2 166.788 95.2101 166.788 96.456C166.788 97.702 167.798 98.712 169.044 98.712Z" fill="white" stroke="#263238" stroke-linecap="round" stroke-linejoin="round"/>
<path d="M178.602 91.53C178.602 92.1886 178.407 92.8324 178.041 93.3801C177.675 93.9277 177.155 94.3545 176.546 94.6065C175.938 94.8586 175.268 94.9245 174.622 94.796C173.976 94.6675 173.383 94.3504 172.917 93.8847C172.452 93.419 172.134 92.8256 172.006 92.1797C171.878 91.5337 171.943 90.8642 172.195 90.2557C172.448 89.6472 172.874 89.1271 173.422 88.7612C173.97 88.3953 174.613 88.2 175.272 88.2C176.155 88.2 177.002 88.5509 177.627 89.1754C178.251 89.7998 178.602 90.6468 178.602 91.53Z" fill="white" stroke="#263238" stroke-linecap="round" stroke-linejoin="round"/>
<path d="M164.532 96.456C164.532 96.6791 164.466 96.8972 164.342 97.0827C164.218 97.2682 164.042 97.4128 163.836 97.4981C163.63 97.5835 163.403 97.6059 163.184 97.5623C162.965 97.5188 162.764 97.4114 162.606 97.2536C162.449 97.0959 162.341 96.8949 162.298 96.6761C162.254 96.4573 162.276 96.2304 162.362 96.0243C162.447 95.8182 162.592 95.642 162.777 95.5181C162.963 95.3942 163.181 95.328 163.404 95.328C163.703 95.328 163.99 95.4468 164.202 95.6584C164.413 95.8699 164.532 96.1568 164.532 96.456Z" fill="white" stroke="#263238" stroke-linecap="round" stroke-linejoin="round"/>
<path d="M142.428 144.816C142.428 144.816 136.65 158.55 134.7 166.8C132.75 175.05 132.9 192.3 132.9 193.8C132.9 195.3 126.9 203.7 126.45 208.65C126 213.6 123.15 233.1 122.55 235.2C121.95 237.3 116.85 243.6 117 244.35C117.15 245.1 123.6 244.65 124.05 244.65C124.5 244.65 125.4 235.8 126 234.45C126.6 233.1 135.6 214.8 137.25 209.1C138.9 203.4 139.5 195.75 139.5 195.75L149.1 171.45L152.7 194.85C152.7 194.85 151.35 206.7 152.4 212.55C153.45 218.4 153.45 243 153.6 243.45C153.75 243.9 164.85 243.9 164.85 243.9C164.85 243.9 166.05 243.3 163.8 242.1C163.236 241.8 156.75 238.05 156.3 237.45C155.85 236.85 160.65 215.55 161.1 209.1C161.55 202.65 160.95 193.65 160.95 193.65C160.95 193.65 163.95 176.85 163.35 167.1C162.75 157.35 158.4 144.816 158.4 144.816H142.428Z" fill="white" stroke="#263238" stroke-linecap="round" stroke-linejoin="round"/>
<path d="M158.4 225.432C159.6 219.234 160.908 212.316 161.13 209.1C161.58 202.65 160.98 193.65 160.98 193.65C160.98 193.65 163.98 176.85 163.38 167.1C162.78 157.35 158.4 144.816 158.4 144.816H142.44C142.44 144.816 136.65 158.55 134.7 166.8C132.75 175.05 132.9 192.3 132.9 193.8C132.9 195.3 126.9 203.7 126.45 208.65C126.18 211.596 125.064 219.684 124.08 226.2C125.707 227.056 127.529 227.47 129.366 227.4C132.294 221.202 136.218 212.682 137.25 209.112C138.9 203.412 139.5 195.762 139.5 195.762L149.1 171.462L152.7 194.862C152.7 194.862 151.35 206.712 152.4 212.562C152.808 214.818 153.054 219.876 153.216 225.258C154.928 225.555 156.672 225.614 158.4 225.432Z" fill="#263238" stroke="#263238" stroke-linecap="round" stroke-linejoin="round"/>
<path d="M149.1 171.45L153.6 164.55" stroke="white" stroke-linecap="round" stroke-linejoin="round"/>
<path d="M152.85 146.7L153.15 158.25C153.15 158.25 154.95 156.9 155.1 155.85C155.25 154.8 154.65 147.9 154.65 147.9" stroke="white" stroke-linecap="round" stroke-linejoin="round"/>
<path d="M124.05 244.65C124.374 244.65 124.938 239.994 125.454 236.922C125.195 236.285 124.821 235.701 124.35 235.2C123.6 234.6 122.4 235.95 122.4 235.95L122.19 236.04C120.882 238.632 116.868 243.684 117 244.35C117.132 245.016 123.6 244.65 124.05 244.65Z" fill="#92E3A9" stroke="#263238" stroke-linecap="round" stroke-linejoin="round"/>
<path d="M117.6 243.3H124.2" stroke="#263238" stroke-linecap="round" stroke-linejoin="round"/>
<path d="M163.8 242.1C163.236 241.8 156.75 238.05 156.3 237.45C156.3 237.45 155.1 238.05 155.25 238.65C155.343 239.043 155.393 239.446 155.4 239.85L153.51 240.108C153.54 242.082 153.57 243.354 153.6 243.45C153.75 243.9 164.85 243.9 164.85 243.9C164.85 243.9 166.05 243.3 163.8 242.1Z" fill="#92E3A9" stroke="#263238" stroke-linecap="round" stroke-linejoin="round"/>
<path d="M153.6 242.85H164.7" stroke="#263238" stroke-linecap="round" stroke-linejoin="round"/>
<path d="M127.23 124.296C127.23 124.296 114.306 139.608 114.42 140.496C114.534 141.384 133.74 150.486 135.48 150.81C137.22 151.134 139.17 151.896 139.932 151.896C140.694 151.896 143.298 150.162 143.298 150.162C143.298 150.162 147.498 151.68 147.642 151.14C147.786 150.6 144.816 149.724 144.816 149.724H148.728C148.728 149.724 149.7 149.508 148.728 149.184C147.475 148.887 146.204 148.669 144.924 148.53L148.836 148.422C148.836 148.422 149.922 148.098 148.836 147.882C147.75 147.666 145.362 147.444 145.362 147.444L148.506 147.012C148.506 147.012 149.052 146.358 148.29 146.358C147.528 146.358 143.838 146.25 143.49 146.358C143.142 146.466 141 147 141 147L143.172 145.59C143.172 145.59 142.518 145.152 142.194 145.374C141.87 145.596 139.59 147.108 139.476 147.432C139.362 147.756 137.742 148.74 137.742 148.74C137.742 148.74 136.656 148.518 135.678 148.41C134.7 148.302 122.436 138.096 122.436 138.096L133.944 127.242L127.23 124.296Z" fill="white" stroke="#263238" stroke-linecap="round" stroke-linejoin="round"/>
<path d="M158.496 124.404C158.496 124.404 168.81 131.682 170.658 132.006C172.506 132.33 173.586 128.748 171.858 126.468C170.13 124.188 163.278 120.282 163.278 120.282L158.496 124.404Z" fill="white" stroke="#263238" stroke-linecap="round" stroke-linejoin="round"/>
<path d="M141.45 114.636C141.45 114.636 136.02 114.198 133.854 115.176C131.688 116.154 125.274 124.404 125.274 124.404L132.222 129.072L133.632 128.532C133.632 128.532 136.032 133.416 137.976 135.48C139.92 137.544 142.212 140.688 142.212 142.32C142.193 143.157 142.265 143.994 142.428 144.816H158.4L157.638 137.76C157.638 137.76 161.238 133.008 161.01 130.404C160.804 128.676 160.202 127.02 159.252 125.562L164.694 120.822C164.694 120.822 162.852 114.96 160.572 114.09C158.292 113.22 153.078 114.09 153.078 114.09C153.078 114.09 145.47 115.83 141.45 114.636Z" fill="#92E3A9" stroke="#263238" stroke-linecap="round" stroke-linejoin="round"/>
<path d="M140.106 133.44C140.106 133.44 141.66 135.762 145.38 135.762" stroke="#263238" stroke-linecap="round" stroke-linejoin="round"/>
<path d="M135.564 83.154C135.564 83.154 132.222 81.294 131.964 82.038C131.706 82.782 133.326 83.154 132.954 83.4C132.582 83.646 130.848 83.52 130.722 84.264C130.596 85.008 131.838 85.254 130.974 85.38C130.11 85.506 128.124 85.38 128.124 86.37C128.124 87.36 129.732 87.48 129.366 87.852C129 88.224 127.014 88.35 126.888 89.706C126.762 91.062 127.758 91.068 127.134 91.686C126.51 92.304 125.526 92.802 125.28 94.164C125.034 95.526 125.652 95.646 125.88 96.264C126.108 96.882 125.016 97.626 125.508 98.988C126 100.35 127.242 100.596 127.242 101.214C127.242 101.832 126.006 102.084 127.614 103.692C129.222 105.3 130.584 105.3 130.584 105.3C130.584 105.3 129.468 106.662 130.212 107.652C130.956 108.642 130.956 107.898 131.448 108.252C131.94 108.606 131.202 109.488 132.192 109.734C133.182 109.98 133.926 108.498 134.172 109.608C134.418 110.718 134.916 111.96 135.534 111.714C136.152 111.468 136.644 110.232 136.77 110.598C136.896 110.964 137.514 112.212 138.252 112.212C138.99 112.212 139.494 111.468 139.986 112.212C140.213 112.561 140.526 112.847 140.895 113.041C141.263 113.235 141.675 113.332 142.092 113.322C142.692 113.196 143.082 112.212 143.7 112.212C144.318 112.212 145.428 113.076 145.8 112.812C146.172 112.548 146.67 111.696 147.408 112.212C148.146 112.728 149.64 113.196 150.006 112.704C150.372 112.212 149.886 111.096 150.75 111.096C151.614 111.096 152.976 111.342 153.102 110.496C153.228 109.65 151.866 108.762 153.348 108.762C154.83 108.762 155.454 109.134 155.454 107.898V105.546C155.454 105.546 155.946 105.792 156.054 104.946C156.211 104.215 156.461 103.507 156.798 102.84C156.798 102.84 157.536 103.83 157.536 102.348C157.536 100.866 156.546 100.368 157.416 99.996C158.286 99.624 158.526 99.624 158.526 98.88C158.475 98.2084 158.35 97.5445 158.154 96.9C158.455 96.6924 158.702 96.4157 158.874 96.0932C159.046 95.7707 159.139 95.4116 159.144 95.046C159.176 94.4067 159.049 93.7694 158.772 93.192C158.772 93.192 160.014 92.448 158.652 91.83C157.29 91.212 158.052 89.85 158.052 89.106C158.052 88.362 157.806 87.996 157.308 87.87C156.81 87.744 156.816 87.006 156.936 86.508C157.056 86.01 156.336 85.026 155.574 84.9C154.812 84.774 154.584 84.408 154.584 84.036C154.584 83.664 155.454 82.674 154.464 82.674C153.474 82.674 152.73 82.548 152.604 82.182C152.478 81.816 151.368 80.448 150.624 80.448C149.88 80.448 148.896 79.458 148.896 79.458C148.861 79.2518 148.755 79.0645 148.596 78.9285C148.437 78.7926 148.235 78.7167 148.026 78.714C147.288 78.714 146.544 77.604 145.182 77.85C143.82 78.096 143.202 78.84 142.458 78.594C141.714 78.348 142.338 77.724 141.348 78.222C140.358 78.72 140.142 79.2 139.8 79.2C139.458 79.2 139.674 77.958 138.93 79.074C138.186 80.19 137.694 81.054 137.694 81.054C137.694 81.054 137.82 80.064 137.094 80.19C136.368 80.316 135.312 81.912 135.564 83.154Z" fill="#263238" stroke="#263238" stroke-linecap="round" stroke-linejoin="round"/>
<path d="M144.708 104.43C144.708 104.43 145.032 111.594 144.924 112.788C144.816 113.982 141.45 114.636 141.45 114.636C141.45 114.636 144.708 121.368 148.506 121.692C152.304 122.016 153.504 114.198 153.504 114.198C153.005 114.256 152.501 114.15 152.068 113.895C151.635 113.641 151.296 113.252 151.104 112.788C150.45 111.162 150.666 106.188 150.666 106.188L144.708 104.43Z" fill="white" stroke="#263238" stroke-linecap="round" stroke-linejoin="round"/>
<path d="M143.898 91.344C143.898 91.344 142.356 91.452 142.47 92.004C142.584 92.556 144.564 92.886 143.022 93.438C141.48 93.99 140.928 93.876 141.036 94.536C141.144 95.196 142.8 95.088 141.48 96.192C140.16 97.296 139.824 97.29 139.824 97.734C139.824 98.178 140.484 98.502 140.046 99.054C139.608 99.606 139.494 99.714 139.608 100.254C139.722 100.794 140.598 100.692 140.376 101.574C140.154 102.456 140.598 103.338 143.46 105.87C146.322 108.402 151.5 109.722 153.81 109.176C156.12 108.63 156.342 103.668 155.904 100.254C155.466 96.84 152.16 92.544 152.16 92.544C151.486 92.3015 150.781 92.1541 150.066 92.106C149.184 92.106 149.406 91.44 148.524 91.44C147.642 91.44 147.642 91.662 146.874 91.44C146.106 91.218 146.214 90.45 145.554 90.45C144.894 90.45 143.898 91.344 143.898 91.344Z" fill="white" stroke="#263238" stroke-linecap="round" stroke-linejoin="round"/>
<path d="M151.83 100.044C151.851 100.233 151.822 100.424 151.745 100.598C151.668 100.772 151.546 100.923 151.392 101.034C150.84 101.478 150.288 101.694 149.628 101.256" stroke="#263238" stroke-linecap="round" stroke-linejoin="round"/>
<path d="M152.268 102.798L153.48 101.694" stroke="#263238" stroke-linecap="round" stroke-linejoin="round"/>
<path d="M143.352 98.394L146.766 97.404" stroke="#263238" stroke-linecap="round" stroke-linejoin="round"/>
<path d="M149.298 94.758C149.298 94.758 149.736 92.778 151.17 92.358" stroke="#263238" stroke-linecap="round" stroke-linejoin="round"/>
<path d="M147.864 99.384C147.864 99.4932 147.832 99.5999 147.771 99.6907C147.71 99.7815 147.624 99.8522 147.523 99.894C147.422 99.9358 147.311 99.9467 147.204 99.9254C147.097 99.9041 146.999 99.8516 146.922 99.7744C146.844 99.6972 146.792 99.5988 146.771 99.4917C146.749 99.3846 146.76 99.2737 146.802 99.1728C146.844 99.0719 146.915 98.9857 147.005 98.9251C147.096 98.8644 147.203 98.832 147.312 98.832C147.458 98.832 147.599 98.8902 147.702 98.9937C147.806 99.0972 147.864 99.2376 147.864 99.384Z" fill="#263238"/>
<path d="M151.938 97.29C151.939 97.3997 151.908 97.5072 151.847 97.5989C151.787 97.6906 151.701 97.7623 151.6 97.8048C151.499 97.8473 151.387 97.8587 151.28 97.8376C151.172 97.8165 151.073 97.7638 150.996 97.6863C150.918 97.6087 150.865 97.5098 150.844 97.4022C150.823 97.2945 150.835 97.1831 150.877 97.082C150.92 96.9809 150.991 96.8947 151.083 96.8345C151.175 96.7743 151.282 96.7428 151.392 96.744C151.536 96.7456 151.674 96.8036 151.776 96.9056C151.878 97.0077 151.936 97.1457 151.938 97.29Z" fill="#263238"/>
<path d="M141.234 103.56C141.234 103.56 140.034 101.82 139.17 103.344C138.306 104.868 140.694 106.032 143.46 105.882L141.234 103.56Z" fill="white" stroke="#263238" stroke-linecap="round" stroke-linejoin="round"/>
<path d="M156.03 109.164C156.03 109.164 153.822 108.768 153.51 109.398C153.198 110.028 155.478 110.664 156.744 110.424C158.01 110.184 156.03 109.164 156.03 109.164Z" fill="white" stroke="#263238" stroke-linecap="round" stroke-linejoin="round"/>
<path d="M161.43 115.284C160.783 115.344 160.135 115.192 159.582 114.852C158.928 114.306 158.28 112.248 158.28 112.248C158.28 112.248 157.302 113.112 156.762 112.68C156.222 112.248 155.13 109.206 155.13 109.206L158.172 107.034C157.982 106.532 157.726 106.058 157.41 105.624C156.978 105.078 154.584 103.902 154.806 103.224C155.028 102.546 158.496 104.634 158.496 104.634C158.496 104.634 159.258 105.936 159.582 106.368C159.906 106.8 163.38 114.516 163.38 114.516C163.38 114.516 173.046 126.024 173.802 127.218C174.558 128.412 175.11 130.908 174.24 131.886C173.37 132.864 172.176 132.864 170.112 131.994C168.048 131.124 161.43 115.284 161.43 115.284Z" fill="white" stroke="#263238" stroke-linecap="round" stroke-linejoin="round"/>
<path d="M158.718 108.138C158.718 108.138 155.562 109.794 155.64 110.346" stroke="#263238" stroke-linecap="round" stroke-linejoin="round"/>
<path d="M159.108 109.32C159.108 109.32 156.108 110.58 156.108 111.216" stroke="#263238" stroke-linecap="round" stroke-linejoin="round"/>
<path d="M158.244 112.002L157.848 111.606" stroke="#263238" stroke-linecap="round" stroke-linejoin="round"/>
</svg>
