<svg width="60" height="79" viewBox="0 0 60 79" fill="none" xmlns="http://www.w3.org/2000/svg">
<path d="M16.2401 78.1463C16.1552 78.1078 16.087 78.037 16.0489 77.9479C16.0107 77.8588 16.0055 77.7578 16.0341 77.6648C18.5402 69.6016 22.9536 62.3526 28.8539 56.6088C34.7541 50.8649 41.9445 46.8174 49.7398 44.8522C49.8353 44.8309 49.9349 44.8498 50.0174 44.9049C50.1 44.96 50.1591 45.047 50.1822 45.1475C50.2041 45.2479 50.1877 45.3534 50.1367 45.4411C50.0857 45.5289 50.004 45.5917 49.9095 45.6161C42.2393 47.5476 35.1637 51.5277 29.3569 57.1771C23.5501 62.8266 19.2055 69.9571 16.7371 77.8895C16.7052 77.9872 16.6387 78.0681 16.5516 78.1148C16.4645 78.1616 16.3637 78.1705 16.2704 78.1399L16.2401 78.1463Z" fill="#263238"/>
<path d="M28.6207 67.6816C25.1362 64.6257 19.6216 69.6911 19.7064 69.8708C19.3186 70.577 18.9429 71.3025 18.5853 72.0408C19.3489 71.2897 21.8759 70.8659 25.2028 71.6556C28.5237 72.304 32.0385 70.4551 28.6207 67.6816Z" fill="#263238"/>
<path d="M18.1914 59.3678C14.6705 56.5045 12.9555 62.7191 15.2462 65.6145C17.4096 68.5356 18.5731 70.9174 18.5247 72.0345C18.8398 71.2769 19.167 70.5258 19.5124 69.7811C19.3367 69.7361 21.4213 62.1862 18.1914 59.3678Z" fill="#263238"/>
<path d="M33.0869 62.3852C30.1357 58.7643 23.9423 62.7126 23.9969 62.8924C23.504 63.513 23.0253 64.155 22.5607 64.8184C23.4272 64.2342 25.9724 64.292 29.1115 65.6723C32.2567 66.9049 36.0199 65.7365 33.0869 62.3852Z" fill="#263238"/>
<path d="M24.1242 52.3379C21.0942 48.8904 18.4641 54.6684 20.2761 57.9169C21.9486 61.1654 22.7304 63.6949 22.5122 64.7606C22.9364 64.0737 23.3727 63.406 23.8272 62.7447C23.6575 62.6998 26.8633 55.7213 24.1242 52.3379Z" fill="#263238"/>
<path d="M38.3166 57.9811C35.9775 53.8916 29.269 56.665 29.3054 56.8512C28.6994 57.3712 28.154 57.9105 27.6025 58.4626C28.5418 58.0453 31.0325 58.5653 33.9049 60.4849C36.8016 62.2889 40.6679 61.801 38.3166 57.9811Z" fill="#263238"/>
<path d="M31.0447 46.4828C28.6207 42.5538 25.1119 47.7668 26.3906 51.2914C27.5299 54.7839 27.8995 57.4161 27.5299 58.4112C28.051 57.8205 28.5843 57.2427 29.1297 56.6778C28.9782 56.6072 33.2202 50.3091 31.0447 46.4828Z" fill="#263238"/>
<path d="M44.1585 54.5528C42.492 50.1102 35.4321 51.6638 35.4381 51.85C34.7837 52.2609 34.1413 52.691 33.505 53.134C34.4988 52.89 36.8683 53.8466 39.4014 56.2477C41.9829 58.5461 45.8795 58.7387 44.1585 54.5528Z" fill="#263238"/>
<path d="M38.8318 41.931C37.0562 37.6296 32.7718 42.1621 33.4626 45.8536C34.0686 49.5066 33.9898 52.1645 33.4626 53.0761C34.0686 52.5882 34.6746 52.1131 35.2806 51.6509C35.1655 51.5546 40.3468 46.0912 38.8318 41.931Z" fill="#263238"/>
<path d="M50.5215 52.2031C49.5822 47.5229 42.3163 47.8118 42.3042 47.998C41.5891 48.2869 40.8861 48.6015 40.1892 48.9289C41.2073 48.8647 43.401 50.2129 45.522 53.0377C47.7036 55.7662 51.5457 56.6329 50.5215 52.2031Z" fill="#263238"/>
<path d="M47.2855 38.8046C46.2129 34.2464 41.2255 37.9636 41.3164 41.7321C41.3164 45.4364 40.8195 48.0558 40.1589 48.8647C40.8316 48.4859 41.5224 48.1264 42.2133 47.7797C42.0739 47.6577 48.1097 43.1766 47.2855 38.8046Z" fill="#263238"/>
<path d="M46.4249 46.2261C46.3219 46.1619 51.8001 42.2521 55.3695 41.6358C58.86 40.9231 60.2175 43.5297 59.6115 45.0576C59.0055 46.5856 56.5815 46.9836 54.5271 46.8617C52.491 46.5599 46.4552 46.1362 46.4249 46.2261Z" fill="#263238"/>
<path d="M46.334 46.4636C46.2899 46.4359 46.2547 46.3947 46.2331 46.3454C46.2115 46.2961 46.2044 46.2411 46.2128 46.1875C46.2178 46.1509 46.2324 46.1164 46.2549 46.0881C46.2773 46.0597 46.3068 46.0386 46.34 46.027C47.2187 45.1346 52.291 41.9503 55.3573 41.4175C57.0723 41.0708 58.5449 41.4816 59.3872 42.5602C59.6789 42.9153 59.8768 43.3458 59.9609 43.8081C60.045 44.2703 60.0122 44.7479 59.866 45.1924C59.1206 47.2789 55.624 47.2276 54.5453 47.1634C52.5515 46.868 47.0551 46.4636 46.534 46.5214C46.4987 46.5275 46.4625 46.5256 46.428 46.5156C46.3935 46.5056 46.3614 46.4879 46.334 46.4636ZM57.9268 42.0466C57.1225 41.7376 56.2505 41.684 55.4179 41.8925C52.6 42.3805 48.6307 44.9099 47.1703 45.9564C47.6854 45.9564 48.4913 46.0334 49.7458 46.1297C51.3577 46.2517 53.4727 46.4443 54.5938 46.6048C56.5814 46.7268 58.9085 46.3673 59.4418 44.9613C59.5544 44.6034 59.5761 44.2204 59.5049 43.8508C59.4336 43.4812 59.2718 43.138 59.0358 42.8555C58.7382 42.489 58.3562 42.2103 57.9268 42.0466Z" fill="#263238"/>
<path d="M12.4102 79.0772C12.2613 79.0783 12.1172 79.0214 12.0054 78.9172C11.8937 78.813 11.822 78.6688 11.8042 78.5122C10.8999 65.3835 13.1842 52.2282 18.4395 40.3C23.6947 28.3717 31.7458 18.0678 41.8254 10.3704C41.8863 10.324 41.9552 10.2908 42.0282 10.2726C42.1012 10.2545 42.1768 10.2517 42.2508 10.2645C42.3248 10.2773 42.3957 10.3055 42.4595 10.3473C42.5232 10.3892 42.5785 10.4439 42.6223 10.5084C42.6661 10.5729 42.6974 10.6459 42.7145 10.7232C42.7317 10.8005 42.7343 10.8807 42.7222 10.9591C42.7101 11.0375 42.6835 11.1126 42.644 11.1801C42.6045 11.2476 42.5529 11.3062 42.492 11.3526C32.5776 18.9334 24.6604 29.077 19.4944 40.8174C14.3284 52.5577 12.0856 65.5037 12.9798 78.4224C12.9811 78.5791 12.9281 78.7309 12.831 78.8492C12.7339 78.9674 12.5993 79.044 12.4526 79.0644L12.4102 79.0772Z" fill="#92E3A9"/>
<path d="M24.3 56.3054C17.634 54.1162 12.5254 64.8312 12.7496 65.0366C12.584 66.3206 12.4527 67.5918 12.3557 68.8501C13.0344 67.2965 16.4159 65.1072 21.6215 64.1507C26.7482 63.0015 30.7539 58.1415 24.3 56.3054Z" fill="#92E3A9"/>
<path d="M4.70185 50.932C-1.96415 49.006 -0.927892 59.0211 3.98071 61.7368C8.70751 64.568 11.7072 67.2452 12.2526 68.8437C12.2526 67.5597 12.3253 66.2757 12.4041 64.9917C12.1435 65.0752 10.9255 52.9799 4.70185 50.932Z" fill="#92E3A9"/>
<path d="M27.748 45.9179C21.494 42.5795 14.822 52.1196 15.022 52.3379C14.6644 53.532 14.3372 54.7454 14.0342 55.9652C14.9492 54.5849 18.6277 53.0698 23.9059 53.0826C29.1175 52.9029 33.8201 48.8775 27.748 45.9179Z" fill="#92E3A9"/>
<path d="M9.2832 37.1482C3.03534 34.1051 2.47176 44.0433 6.8592 47.5678C11.1012 51.1759 13.61 54.3217 13.8949 55.9716C14.113 54.7261 14.3675 53.4935 14.6463 52.2609C14.4039 52.2801 15.0947 40.2619 9.2832 37.1482Z" fill="#92E3A9"/>
<path d="M32.7656 36.3263C27.1238 31.935 19.064 40.1206 19.2094 40.3645C18.668 41.4773 18.155 42.6029 17.6702 43.7414C18.7852 42.5537 22.6454 41.732 27.8388 42.6885C33.0201 43.4461 38.2802 40.3581 32.7656 36.3263Z" fill="#92E3A9"/>
<path d="M15.9492 24.3916C10.271 20.2828 8.16211 29.9642 11.9617 34.2014C15.5493 38.5028 17.5551 42.0338 17.5794 43.6966C17.9834 42.5239 18.4217 41.3597 18.8944 40.2041C18.6277 40.2041 21.1851 28.5197 15.9492 24.3916Z" fill="#92E3A9"/>
<path d="M39.2377 27.7429C34.3897 22.4207 25.1119 29.0782 25.227 29.335C24.518 30.3365 23.8393 31.3573 23.1787 32.3909C24.4634 31.4215 28.3964 31.2995 33.3656 33.1613C38.353 34.8305 44.0433 32.6542 39.2377 27.7429Z" fill="#92E3A9"/>
<path d="M24.5483 12.996C19.5973 7.93709 15.9674 17.1305 19.0519 21.9841C21.9062 26.8568 23.3303 30.6896 23.0939 32.3331C23.6797 31.2502 24.2857 30.1802 24.9119 29.1231C24.6695 29.091 29.0448 17.9972 24.5483 12.996Z" fill="#92E3A9"/>
<path d="M47.0492 20.3791C43.0799 14.2609 32.8385 19.2364 32.9172 19.5124C32.0567 20.3684 31.2184 21.2544 30.4023 22.1703C31.8264 21.4384 35.7291 22.0034 40.3407 24.7383C44.9827 27.2421 50.9942 26.0929 47.0492 20.3791Z" fill="#92E3A9"/>
<path d="M34.917 3.21208C30.8386 -2.6558 25.7301 5.81859 28.0147 11.1536C30.0569 16.4758 30.8447 20.5204 30.3478 22.0997C31.0992 21.1303 31.881 20.1737 32.6869 19.2557C32.3961 19.1722 38.5409 8.95798 34.917 3.21208Z" fill="#92E3A9"/>
<path d="M37.8319 14.3828C37.6501 14.3828 43.3223 5.31778 48.0915 2.18482C52.6971 -1.02518 56.0604 1.87024 56.0907 4.4254C56.121 6.98056 52.8607 9.09916 49.8307 10.1841C46.7219 11.0573 37.8137 14.2031 37.8319 14.3828Z" fill="#92E3A9"/>
<path d="M37.8319 14.7873H37.7834C37.7044 14.776 37.6305 14.7391 37.5719 14.6816C37.5133 14.6242 37.4729 14.549 37.4562 14.4663C37.4528 14.4537 37.4528 14.4404 37.4562 14.4278C37.4413 14.3742 37.4414 14.3172 37.4564 14.2636C37.4715 14.2101 37.5009 14.1623 37.541 14.1261C38.3167 12.2835 43.7707 4.53459 47.8915 1.83819C50.158 0.258869 52.4971 -0.0878202 54.3091 0.9458C54.9294 1.26699 55.4584 1.75627 55.8426 2.36399C56.2268 2.97171 56.4525 3.67626 56.4967 4.40619C56.5876 7.87299 51.5215 9.99801 49.964 10.5694C46.934 11.3976 38.8379 14.2609 38.1167 14.6589C38.0415 14.7399 37.9391 14.7861 37.8319 14.7873ZM51.9881 1.19619C50.6607 1.25312 49.3789 1.72439 48.3036 2.5508C44.5403 5.00966 40.262 11.1344 38.747 13.5419C39.5045 13.2465 40.6862 12.8228 42.5345 12.1744C44.9221 11.3398 48.0612 10.2869 49.7216 9.8311C52.6426 8.76538 55.7816 6.78158 55.7089 4.45754C55.6725 3.87222 55.4901 3.30764 55.1803 2.82149C54.8705 2.33533 54.4443 1.94504 53.9455 1.69052C53.3431 1.35278 52.6695 1.18269 51.9881 1.19619Z" fill="#92E3A9"/>
</svg>
