<svg width="300" height="300" viewBox="0 0 300 300" fill="none" xmlns="http://www.w3.org/2000/svg">
<path d="M99.114 35.952C99.114 35.952 53.652 59.112 30.978 94.8C8.304 130.488 10.098 176.4 37.65 210.48C65.202 244.56 117.864 240.084 161.958 261.672C206.052 283.26 254.7 278.814 275.55 233.076C296.4 187.338 264.96 170.244 259.56 117.312C254.16 64.38 206.442 -13.128 99.114 35.952Z" fill="#92E3A9"/>
<path opacity="0.7" d="M99.114 35.952C99.114 35.952 53.652 59.112 30.978 94.8C8.304 130.488 10.098 176.4 37.65 210.48C65.202 244.56 117.864 240.084 161.958 261.672C206.052 283.26 254.7 278.814 275.55 233.076C296.4 187.338 264.96 170.244 259.56 117.312C254.16 64.38 206.442 -13.128 99.114 35.952Z" fill="white"/>
<path d="M232.95 243.438C232.95 243.438 207.402 198.6 213.3 187.164C219.198 175.728 234.258 196.29 234.258 196.29C234.258 196.29 221.16 154.47 228.366 136.2C235.572 117.93 248.016 136.2 248.67 149.13C249.324 162.06 246.048 184.11 246.048 184.11C246.048 184.11 251.292 138.51 263.736 152.172C276.18 165.834 248.016 211.482 248.016 211.482C248.016 211.482 267.012 200.838 266.352 214.524C265.692 228.21 243.432 240.378 243.432 240.378" fill="#92E3A9"/>
<path d="M233.166 235.074C233.166 235.074 209.526 213.018 221.046 203.136C232.566 193.254 238.626 213.78 238.626 213.78C238.626 213.78 225.894 150.666 246.504 148.38C267.114 146.094 251.958 203.13 251.958 203.13C251.958 203.13 269.538 178.8 268.326 198.6C267.114 218.4 241.05 235.104 241.05 235.104" stroke="#263238" stroke-miterlimit="10"/>
<path d="M244.776 231.06L228.804 213.75" stroke="#263238" stroke-miterlimit="10"/>
<path d="M241.452 232.392L245.778 181.794" stroke="#263238" stroke-miterlimit="10"/>
<path d="M240.786 228.726L255.096 209.754" stroke="#263238" stroke-miterlimit="10"/>
<path d="M261.486 225.198H217.296L221.718 277.32H257.064L261.486 225.198Z" fill="#263238"/>
<path d="M92.79 164.754C87.0445 161.935 81.1055 159.529 75.018 157.554C66.246 154.854 55.896 157.326 55.668 160.248C55.44 163.17 57 161.832 59.046 165C61.092 168.168 60.168 175.572 63.096 182.322C66.024 189.072 74.79 192.444 74.79 192.444L92.79 164.754Z" fill="#92E3A9" stroke="#263238" stroke-linecap="round" stroke-linejoin="round"/>
<path opacity="0.3" d="M86.94 171.282C86.94 171.282 73.44 162.732 65.568 159.804C57.696 156.876 57.246 161.154 57.246 161.154C58.5411 161.629 59.6525 162.502 60.421 163.648C61.1894 164.794 61.5755 166.153 61.524 167.532C61.524 172.584 64.05 183.048 70.188 185.208C76.326 187.368 86.94 171.282 86.94 171.282Z" fill="black"/>
<path d="M183.268 180.835C186.796 179.495 188.489 175.337 187.05 171.549C185.611 167.76 181.584 165.776 178.056 167.116C174.528 168.456 172.834 172.614 174.273 176.402C175.712 180.191 179.739 182.176 183.268 180.835Z" fill="#92E3A9" stroke="#263238" stroke-linecap="round" stroke-linejoin="round"/>
<path d="M86.538 252.492L94.11 275.208C94.3154 275.824 94.7093 276.359 95.2359 276.738C95.7625 277.117 96.3951 277.321 97.044 277.32H108.846C109.45 277.321 110.041 277.145 110.545 276.813C111.05 276.481 111.446 276.009 111.684 275.454L116.964 263.202" fill="#92E3A9"/>
<mask id="mask0_5_4921" style="mask-type:luminance" maskUnits="userSpaceOnUse" x="86" y="252" width="31" height="26">
<path d="M86.538 252.492L94.11 275.208C94.3154 275.824 94.7093 276.359 95.2359 276.738C95.7625 277.117 96.3951 277.321 97.044 277.32H108.846C109.45 277.321 110.041 277.145 110.545 276.813C111.05 276.481 111.446 276.009 111.684 275.454L116.964 263.202" fill="white"/>
</mask>
<g mask="url(#mask0_5_4921)">
<path opacity="0.3" d="M90.336 252.492L96.6 275.208C96.7185 275.778 97.0211 276.294 97.4612 276.676C97.9014 277.057 98.4546 277.284 99.036 277.32H108.822C109.359 277.292 109.875 277.098 110.297 276.763C110.718 276.429 111.025 275.971 111.174 275.454L115.554 263.202" fill="black"/>
</g>
<path d="M86.538 252.492L94.11 275.208C94.3154 275.824 94.7093 276.359 95.2359 276.738C95.7625 277.117 96.3951 277.321 97.044 277.32H108.846C109.45 277.321 110.041 277.145 110.545 276.813C111.05 276.481 111.446 276.009 111.684 275.454L116.964 263.202" stroke="#263238" stroke-linecap="round" stroke-linejoin="round"/>
<path d="M143.49 252.492L135.924 275.208C135.719 275.824 135.325 276.359 134.798 276.738C134.271 277.117 133.639 277.321 132.99 277.32H121.2C120.596 277.321 120.005 277.145 119.501 276.813C118.997 276.481 118.6 276.009 118.362 275.454L113.082 263.202" fill="#263238"/>
<path d="M143.49 252.492L135.924 275.208C135.719 275.824 135.325 276.359 134.798 276.738C134.271 277.117 133.639 277.321 132.99 277.32H121.2C120.596 277.321 120.005 277.145 119.501 276.813C118.997 276.481 118.6 276.009 118.362 275.454L113.082 263.202" stroke="#263238" stroke-linecap="round" stroke-linejoin="round"/>
<path d="M168.564 252.492L160.992 275.208C160.787 275.824 160.393 276.359 159.866 276.738C159.339 277.117 158.707 277.321 158.058 277.32H146.256C145.652 277.321 145.061 277.145 144.557 276.813C144.052 276.481 143.656 276.009 143.418 275.454L138.138 263.202" fill="#92E3A9"/>
<mask id="mask1_5_4921" style="mask-type:luminance" maskUnits="userSpaceOnUse" x="138" y="252" width="31" height="26">
<path d="M168.564 252.492L160.992 275.208C160.787 275.824 160.393 276.359 159.866 276.738C159.339 277.117 158.707 277.321 158.058 277.32H146.256C145.652 277.321 145.061 277.145 144.557 276.813C144.052 276.481 143.656 276.009 143.418 275.454L138.138 263.202" fill="white"/>
</mask>
<g mask="url(#mask1_5_4921)">
<path opacity="0.3" d="M163.2 252.492L158.022 275.208C157.734 276.468 156.93 277.32 156.018 277.32H147.948C147.108 277.32 146.346 276.588 146.01 275.454L140.994 263.454" fill="black"/>
</g>
<path d="M168.564 252.492L160.992 275.208C160.787 275.824 160.393 276.359 159.866 276.738C159.339 277.117 158.707 277.321 158.058 277.32H146.256C145.652 277.321 145.061 277.145 144.557 276.813C144.052 276.481 143.656 276.009 143.418 275.454L138.138 263.202" stroke="#263238" stroke-linecap="round" stroke-linejoin="round"/>
<path d="M128.1 267.438C163.944 267.438 193.002 241.086 193.002 208.578C193.002 176.071 163.944 149.718 128.1 149.718C92.2556 149.718 63.198 176.071 63.198 208.578C63.198 241.086 92.2556 267.438 128.1 267.438Z" fill="#92E3A9"/>
<mask id="mask2_5_4921" style="mask-type:luminance" maskUnits="userSpaceOnUse" x="63" y="149" width="131" height="119">
<path d="M128.1 267.438C163.944 267.438 193.002 241.086 193.002 208.578C193.002 176.071 163.944 149.718 128.1 149.718C92.2556 149.718 63.198 176.071 63.198 208.578C63.198 241.086 92.2556 267.438 128.1 267.438Z" fill="white"/>
</mask>
<g mask="url(#mask2_5_4921)">
<path opacity="0.3" d="M172.8 168.36C176.606 175.908 178.589 184.243 178.59 192.696C178.59 225.204 149.532 251.556 113.688 251.556C100.349 251.624 87.2749 247.836 76.038 240.648C87.354 255.834 106.512 265.848 128.238 265.848C163.038 265.848 191.238 240.282 191.238 208.74C191.202 192.954 184.158 178.692 172.8 168.36Z" fill="black"/>
</g>
<path d="M128.1 267.438C163.944 267.438 193.002 241.086 193.002 208.578C193.002 176.071 163.944 149.718 128.1 149.718C92.2556 149.718 63.198 176.071 63.198 208.578C63.198 241.086 92.2556 267.438 128.1 267.438Z" stroke="#263238" stroke-linecap="round" stroke-linejoin="round"/>
<path d="M187.542 213.858C186.126 225.714 180.66 236.472 172.428 244.968" stroke="#92E3A9" stroke-width="2" stroke-linecap="round" stroke-linejoin="round"/>
<path d="M186.468 195.6C187.426 199.571 187.909 203.641 187.908 207.726" stroke="#92E3A9" stroke-width="2" stroke-linecap="round" stroke-linejoin="round"/>
<path d="M112.008 153.39C117.356 152.14 122.83 151.512 128.322 151.518C131.838 151.517 135.349 151.774 138.828 152.286" stroke="#263238" stroke-width="4" stroke-linecap="round" stroke-linejoin="round"/>
<path d="M140.832 194.478C140.832 194.478 147.132 190.2 147.36 182.328C147.588 174.456 137.232 162.984 128.91 158.256C120.588 153.528 114.51 154.434 114.288 157.806C114.066 161.178 111.138 165.006 110.016 171.528C108.894 178.05 108.438 187.728 117.216 190.878" fill="#92E3A9"/>
<path d="M140.832 194.478C140.832 194.478 147.132 190.2 147.36 182.328C147.588 174.456 137.232 162.984 128.91 158.256C120.588 153.528 114.51 154.434 114.288 157.806C114.066 161.178 111.138 165.006 110.016 171.528C108.894 178.05 108.438 187.728 117.216 190.878" stroke="#263238" stroke-linecap="round" stroke-linejoin="round"/>
<path opacity="0.3" d="M127.278 191.952L128.568 192.144C134.1 192.942 136.044 189.33 135.882 183.906C135.66 176.256 125.538 160.056 121.26 157.806C116.982 155.556 115.638 158.706 115.638 158.706C115.638 158.706 116.238 159.108 114.132 166.098C113.16 169.326 109.542 180.582 113.124 185.574C116.292 189.984 122.178 191.19 127.278 191.952Z" fill="black"/>
<path opacity="0.3" d="M145.2 184.2H145.116C145.037 184.19 144.962 184.164 144.893 184.124C144.825 184.084 144.765 184.032 144.717 183.968C144.669 183.905 144.634 183.834 144.614 183.757C144.594 183.68 144.589 183.6 144.6 183.522C144.665 183.061 144.703 182.596 144.714 182.13C144.834 177.93 141.408 171.9 135.774 166.338C135.718 166.282 135.673 166.216 135.642 166.143C135.611 166.071 135.595 165.992 135.595 165.913C135.594 165.834 135.609 165.756 135.639 165.682C135.669 165.609 135.712 165.542 135.768 165.486C135.824 165.43 135.89 165.385 135.963 165.354C136.035 165.323 136.114 165.307 136.193 165.307C136.272 165.306 136.35 165.321 136.424 165.351C136.497 165.381 136.564 165.424 136.62 165.48C142.572 171.36 146.046 177.594 145.914 182.16C145.901 182.67 145.861 183.178 145.794 183.684C145.774 183.827 145.703 183.958 145.593 184.053C145.484 184.148 145.345 184.2 145.2 184.2Z" fill="black"/>
<path opacity="0.3" d="M141.972 191.436C141.858 191.436 141.747 191.405 141.651 191.344C141.555 191.284 141.478 191.197 141.429 191.095C141.38 190.993 141.361 190.878 141.374 190.766C141.387 190.653 141.432 190.546 141.504 190.458C142.493 189.247 143.283 187.886 143.844 186.426C143.9 186.277 144.014 186.157 144.159 186.092C144.304 186.026 144.469 186.022 144.618 186.078C144.767 186.135 144.887 186.248 144.952 186.393C145.018 186.538 145.022 186.703 144.966 186.852C144.36 188.432 143.505 189.904 142.434 191.214C142.378 191.283 142.308 191.338 142.228 191.377C142.148 191.415 142.061 191.435 141.972 191.436Z" fill="black"/>
<path opacity="0.3" d="M98.2786 219.967C100.053 212.855 93.8679 205.187 84.4637 202.841C75.0594 200.494 65.9972 204.357 64.2227 211.469C62.4482 218.581 68.6333 226.249 78.0376 228.595C87.4419 230.942 96.5041 227.078 98.2786 219.967Z" fill="black"/>
<path d="M97.4342 218.675C99.2087 211.563 93.0235 203.896 83.6192 201.549C74.215 199.203 65.1528 203.066 63.3783 210.178C61.6037 217.29 67.7889 224.957 77.1932 227.304C86.5974 229.65 95.6596 225.787 97.4342 218.675Z" fill="#92E3A9" stroke="#263238" stroke-linecap="round" stroke-linejoin="round"/>
<path d="M75.108 212.28C75.216 213.888 74.598 215.244 73.734 215.28C72.87 215.316 72.072 214.08 71.934 212.472C71.796 210.864 72.444 209.502 73.314 209.472C74.184 209.442 75 210.666 75.108 212.28Z" stroke="#263238" stroke-linecap="round" stroke-linejoin="round"/>
<path d="M87 215.262C87.108 216.876 86.49 218.226 85.626 218.262C84.762 218.298 83.964 217.062 83.826 215.448C83.688 213.834 84.336 212.484 85.206 212.448C86.076 212.412 86.874 213.648 87 215.262Z" stroke="#263238" stroke-linecap="round" stroke-linejoin="round"/>
<path d="M106.626 219.432C106.499 220.587 106.229 221.722 105.822 222.81C102.378 232.116 89.91 236.142 77.592 232.134" stroke="#263238" stroke-width="3" stroke-linecap="round" stroke-linejoin="round"/>
<path d="M104.616 218.55H108.438" stroke="#263238" stroke-width="3" stroke-linecap="round" stroke-linejoin="round"/>
<path d="M80.268 193.638C79.848 195.384 78.774 196.638 77.868 196.41C76.962 196.182 76.566 194.61 76.992 192.846C77.418 191.082 78.486 189.846 79.392 190.068C80.298 190.29 80.694 191.886 80.268 193.638Z" fill="#263238" stroke="#263238" stroke-linecap="round" stroke-linejoin="round"/>
<path d="M91.3333 196.05C91.7557 194.298 91.3642 192.7 90.459 192.482C89.5538 192.264 88.4776 193.508 88.0552 195.26C87.6329 197.013 88.0243 198.61 88.9295 198.828C89.8348 199.047 90.911 197.803 91.3333 196.05Z" fill="#263238" stroke="#263238" stroke-linecap="round" stroke-linejoin="round"/>
<path d="M107.856 259.8L114.456 275.46C114.693 276.02 115.09 276.498 115.596 276.834C116.103 277.17 116.698 277.35 117.306 277.35H129.306C129.909 277.349 130.498 277.173 131.002 276.842C131.506 276.512 131.903 276.042 132.144 275.49L139.344 258.852H139.032" fill="#92E3A9"/>
<mask id="mask3_5_4921" style="mask-type:luminance" maskUnits="userSpaceOnUse" x="107" y="258" width="33" height="20">
<path d="M107.856 259.8L114.456 275.46C114.693 276.02 115.09 276.498 115.596 276.834C116.103 277.17 116.698 277.35 117.306 277.35H129.306C129.909 277.349 130.498 277.173 131.002 276.842C131.506 276.512 131.903 276.042 132.144 275.49L139.344 258.852H139.032" fill="white"/>
</mask>
<g mask="url(#mask3_5_4921)">
<path opacity="0.3" d="M121.8 257.802C117.996 257.802 113.568 258.3 109.986 257.472L116.154 275.43C116.301 275.952 116.607 276.414 117.03 276.753C117.453 277.092 117.971 277.29 118.512 277.32H128.4C128.935 277.29 129.447 277.096 129.866 276.762C130.285 276.429 130.591 275.974 130.74 275.46L136.71 257.142L134.31 257.472C126.696 258.3 126.894 257.802 121.8 257.802Z" fill="black"/>
</g>
<path d="M107.856 259.8L114.456 275.46C114.693 276.02 115.09 276.498 115.596 276.834C116.103 277.17 116.698 277.35 117.306 277.35H129.306C129.909 277.349 130.498 277.173 131.002 276.842C131.506 276.512 131.903 276.042 132.144 275.49L139.344 258.852H139.032" stroke="#263238" stroke-linecap="round" stroke-linejoin="round"/>
<path d="M42.6 277.32H280.2" stroke="#263238" stroke-linecap="round" stroke-linejoin="round"/>
<path d="M21.6 277.32H32.4" stroke="#263238" stroke-linecap="round" stroke-linejoin="round"/>
</svg>
